<svg width="14" height="14" viewBox="0 0 14 14" fill="none" xmlns="http://www.w3.org/2000/svg">
<path d="M1.22991 1.23003C1.60481 0.855127 2.21265 0.855127 2.58755 1.23003L12.7699 11.4124C13.1448 11.7873 13.1448 12.3951 12.7699 12.77C12.395 13.1449 11.7871 13.1449 11.4122 12.77L1.22991 2.58767C0.855005 2.21277 0.855005 1.60493 1.22991 1.23003Z" fill="white"/>
<path d="M12.7699 1.23003C13.1448 1.60493 13.1448 2.21277 12.7699 2.58767L2.58755 12.77C2.21265 13.1449 1.60481 13.1449 1.22991 12.77C0.855005 12.3951 0.855005 11.7873 1.22991 11.4124L11.4122 1.23003C11.7871 0.855127 12.395 0.855127 12.7699 1.23003Z" fill="white"/>
</svg>
