<svg width="78" height="78" viewBox="0 0 78 78" fill="none" xmlns="http://www.w3.org/2000/svg">
<g clip-path="url(#clip0_393_4242)">
<line x1="0.5" y1="60" x2="0.5" y2="78" stroke="#B06F37"/>
<line y1="77.5" x2="18" y2="77.5" stroke="#B06F37"/>
</g>
<g clip-path="url(#clip1_393_4242)">
<line y1="-0.5" x2="18" y2="-0.5" transform="matrix(0 -1 -1 0 0 18)" stroke="#B06F37"/>
<line y1="-0.5" x2="18" y2="-0.5" transform="matrix(1 0 0 -1 0 0)" stroke="#B06F37"/>
</g>
<g clip-path="url(#clip2_393_4242)">
<line x1="77.5" y1="18" x2="77.5" stroke="#B06F37"/>
<line x1="78" y1="0.5" x2="60" y2="0.5" stroke="#B06F37"/>
</g>
<g clip-path="url(#clip3_393_4242)">
<line y1="-0.5" x2="18" y2="-0.5" transform="matrix(0 1 1 0 78 60)" stroke="#B06F37"/>
<line y1="-0.5" x2="18" y2="-0.5" transform="matrix(-1 0 0 1 78 78)" stroke="#B06F37"/>
</g>
<path d="M40.9982 59.6667C41.3182 59.6667 41.6276 59.528 41.8302 59.272C42.4169 58.536 56.4116 41.1173 56.4116 29.7573C56.4116 21.256 49.4995 14.3333 40.9982 14.3333C32.4969 14.3333 25.5742 21.256 25.5742 29.7573C25.5742 41.1173 39.5689 58.536 40.1662 59.272C40.3689 59.528 40.6782 59.6667 40.9982 59.6667ZM34.2569 29.7573C34.2569 26.0347 37.2756 23.016 40.9982 23.016C44.7209 23.016 47.7289 26.0347 47.7289 29.7573C47.7289 33.48 44.7209 36.488 40.9982 36.488C37.2756 36.488 34.2569 33.48 34.2569 29.7573Z" fill="#B06F37"/>
<path d="M18.6645 67.6667H63.3365C63.6991 67.6667 64.0405 67.4853 64.2325 67.176C64.4351 66.8667 64.4565 66.472 64.2965 66.1413L57.5551 52.1467C57.3738 51.7733 57.0005 51.5387 56.5845 51.5387H49.9711C47.1765 55.9013 44.5311 59.304 43.5178 60.5733C42.8991 61.3627 41.9818 61.8 41.0005 61.8C40.0085 61.8 39.1018 61.3627 38.4938 60.5947C38.2271 60.2747 35.2618 56.5947 32.0405 51.5387H25.4058C25.0005 51.5387 24.6271 51.7733 24.4458 52.1467L17.7045 66.1413C17.5445 66.472 17.5658 66.8667 17.7578 67.176C17.9605 67.4853 18.3018 67.6667 18.6645 67.6667Z" fill="#B06F37"/>
<defs>
<clipPath id="clip0_393_4242">
<rect y="60" width="18" height="18" rx="2" fill="white"/>
</clipPath>
<clipPath id="clip1_393_4242">
<rect width="18" height="18" rx="2" transform="matrix(1 0 0 -1 0 18)" fill="white"/>
</clipPath>
<clipPath id="clip2_393_4242">
<rect x="78" y="18" width="18" height="18" rx="2" transform="rotate(180 78 18)" fill="white"/>
</clipPath>
<clipPath id="clip3_393_4242">
<rect width="18" height="18" rx="2" transform="matrix(-1 0 0 1 78 60)" fill="white"/>
</clipPath>
</defs>
</svg>
