<svg width="130" height="32" viewBox="0 0 130 32" fill="none" xmlns="http://www.w3.org/2000/svg">
<g clip-path="url(#clip0_105_851)">
<path d="M31.0404 16.416C31.0404 24.9017 24.0885 31.7757 15.5191 31.7757C6.94786 31.7757 0 24.9017 0 16.416C0 7.93261 6.94786 1.05371 15.5191 1.05371C24.0885 1.05371 31.0404 7.93261 31.0404 16.416Z" fill="#BFBFBF"/>
<path d="M14.3034 17.925L15.6133 14.0772L16.8394 17.921C16.4017 17.9442 15.9624 17.9558 15.521 17.9558C15.1134 17.9558 14.7071 17.9442 14.3034 17.925ZM16.9121 8.57129H14.1304L8.79321 23.089H12.5637L13.2852 20.928L13.3187 20.8311C14.0464 20.8872 14.7797 20.9187 15.521 20.9187C16.2767 20.9187 17.0256 20.8856 17.7674 20.8289L17.7968 20.928L18.4752 23.089H22.2455L16.9121 8.57129Z" fill="white"/>
<path d="M20.5846 7.37527H17.6582L20.3494 0H23.2756L20.5846 7.37527Z" fill="white"/>
<path d="M41.4025 2C42.7838 2 43.8402 2.32745 44.572 2.982C45.3035 3.63655 45.6696 4.62448 45.6696 5.94513V11.3849H43.5973V10.2553C43.3281 10.6608 42.9447 10.9706 42.4472 11.185C41.9497 11.3994 41.3497 11.5067 40.6474 11.5067C39.945 11.5067 39.3304 11.3879 38.8036 11.1504C38.2768 10.9128 37.8702 10.5825 37.5832 10.1597C37.2964 9.73666 37.1531 9.25893 37.1531 8.7258C37.1531 7.89166 37.4661 7.2226 38.0924 6.71846C38.7189 6.21455 39.7052 5.96259 41.0512 5.96259H43.4746V5.8235C43.4746 5.17471 43.2784 4.67655 42.8861 4.32885C42.4941 3.9813 41.9116 3.80744 41.1391 3.80744C40.6123 3.80744 40.0943 3.88868 39.585 4.05084C39.0758 4.21299 38.6456 4.43892 38.2944 4.72863L37.434 3.14712C37.9257 2.77634 38.5169 2.4924 39.2075 2.29563C39.8983 2.09855 40.6297 2 41.4025 2ZM41.1039 9.925C41.654 9.925 42.1429 9.8004 42.5702 9.5514C42.9976 9.30226 43.2989 8.946 43.4746 8.4826V7.405H41.2093C39.945 7.405 39.3129 7.81646 39.3129 8.639C39.3129 9.0328 39.4709 9.3458 39.787 9.57746C40.1029 9.80913 40.5422 9.925 41.1039 9.925ZM52.2894 7.66573H50.5861V11.3849H48.3913V2.10449H50.5861V5.85828H52.342L55.1165 2.10449H57.4695L54.063 6.57083L57.6978 11.3849H55.1165L52.2894 7.66573ZM69.2104 9.54266L69.8577 11.3727L67.4786 11.3849H59.2429V2.10449H61.4379V9.54266H65.9155V2.10449H68.1105V9.54266H69.2104ZM80.2617 6.79673C80.2617 6.9474 80.2503 7.1618 80.2267 7.4398H72.8693C72.9979 8.12353 73.3347 8.665 73.879 9.0648C74.4232 9.4646 75.0995 9.66446 75.9071 9.66446C76.937 9.66446 77.7857 9.32826 78.4532 8.65646L79.6293 9.99453C79.2083 10.4929 78.6755 10.8693 78.0315 11.1243C77.3876 11.3791 76.6622 11.5067 75.8545 11.5067C74.824 11.5067 73.9167 11.3038 73.1326 10.8983C72.3479 10.4929 71.7424 9.928 71.3153 9.20386C70.8876 8.4798 70.6741 7.65993 70.6741 6.74453C70.6741 5.84081 70.8822 5.0269 71.2978 4.30281C71.7127 3.57871 72.2893 3.0138 73.0269 2.60825C73.7644 2.20286 74.5956 2 75.5205 2C76.4338 2 77.2502 2.1999 77.9702 2.59952C78.6903 2.99947 79.2521 3.56124 79.6562 4.2855C80.0597 5.00959 80.2617 5.84674 80.2617 6.79673ZM75.5205 3.73807C74.8179 3.73807 74.2238 3.94373 73.7382 4.35488C73.2525 4.76637 72.9568 5.31381 72.8517 5.99736H78.1723C78.078 5.32534 77.7918 4.7807 77.3115 4.36361C76.8319 3.94653 76.2344 3.73807 75.5205 3.73807ZM82.6671 2.10449H84.8623V5.87574H89.5854V2.10449H91.7806V11.3849H89.5854V7.71793H84.8623V11.3849H82.6671V2.10449ZM102.165 3.94653H98.8747V11.3849H96.6795V3.94653H93.3783V2.10449H102.152L102.165 3.94653Z" fill="#BFBFBF"/>
<path d="M127.411 21.9897H124.73L127.195 15.2334H129.876L127.411 21.9897Z" fill="#BFBFBF"/>
<path d="M37.4363 15.2367H39.386V17.8511H42.3294V15.2367H44.2917V21.9348H42.3294V19.4323H39.386V21.9348H37.4363V15.2367ZM48.795 15.1372C49.8433 15.1372 50.6484 15.384 51.2103 15.8779C51.7722 16.3718 52.0531 17.1166 52.0531 18.1126V21.9348H50.2166V21.1006C49.8475 21.7231 49.1599 22.0344 48.1535 22.0344C47.6337 22.0344 47.183 21.9472 46.8014 21.7728C46.4198 21.5986 46.1284 21.3579 45.9271 21.0507C45.726 20.7437 45.6253 20.3952 45.6253 20.0051C45.6253 19.3826 45.8622 18.8928 46.336 18.5358C46.8099 18.179 47.5415 18.0006 48.531 18.0006H50.0907C50.0907 17.5774 49.9609 17.2514 49.7008 17.0234C49.4407 16.795 49.0508 16.6809 48.531 16.6809C48.1704 16.6809 47.8161 16.737 47.4681 16.849C47.1199 16.9609 46.8246 17.1125 46.5813 17.3034L45.8769 15.9464C46.2458 15.689 46.6882 15.4898 47.2039 15.3488C47.7197 15.2077 48.2501 15.1372 48.795 15.1372ZM48.644 20.7272C48.9797 20.7272 49.2773 20.6503 49.5373 20.4968C49.7973 20.3433 49.9817 20.117 50.0907 19.8182V19.1335H48.7448C47.9397 19.1335 47.5373 19.3949 47.5373 19.918C47.5373 20.167 47.6358 20.3639 47.8328 20.5094C48.03 20.6546 48.3004 20.7272 48.644 20.7272ZM61.3112 15.1372C61.9401 15.1372 62.5125 15.2804 63.0282 15.5666C63.5439 15.853 63.9485 16.2554 64.2421 16.7742C64.5356 17.293 64.6823 17.897 64.6823 18.5858C64.6823 19.2746 64.5356 19.8784 64.2421 20.3972C63.9485 20.9159 63.5439 21.3185 63.0282 21.6048C62.5125 21.8912 61.9401 22.0344 61.3112 22.0344C60.4474 22.0344 59.7682 21.7646 59.2734 21.2251V24.3502H57.3112V15.2367H59.1853V16.0086C59.6717 15.4277 60.3803 15.1372 61.3112 15.1372ZM60.9715 20.4408C61.4747 20.4408 61.8877 20.2728 62.2106 19.9366C62.5334 19.6004 62.6949 19.1502 62.6949 18.5858C62.6949 18.0214 62.5334 17.5712 62.2106 17.235C61.8877 16.8988 61.4747 16.7307 60.9715 16.7307C60.4684 16.7307 60.0554 16.8988 59.7326 17.235C59.4097 17.5712 59.2483 18.0214 59.2483 18.5858C59.2483 19.1502 59.4097 19.6004 59.7326 19.9366C60.0554 20.2728 60.4684 20.4408 60.9715 20.4408ZM72.6325 18.6106C72.6325 18.6355 72.6197 18.8099 72.5948 19.1335H67.475C67.5673 19.5485 67.7855 19.8764 68.129 20.117C68.4725 20.3578 68.9003 20.4782 69.4122 20.4782C69.7645 20.4782 70.077 20.4263 70.3491 20.3225C70.6219 20.2187 70.8752 20.0549 71.1103 19.8308L72.1543 20.9512C71.5171 21.6733 70.5862 22.0344 69.3617 22.0344C68.5985 22.0344 67.9236 21.887 67.3366 21.5924C66.7494 21.2978 66.2967 20.8889 65.978 20.366C65.6593 19.8431 65.5 19.2497 65.5 18.5858C65.5 17.93 65.6573 17.3388 65.9717 16.8116C66.2862 16.2846 66.7181 15.8738 67.2674 15.5792C67.8165 15.2843 68.4308 15.1372 69.1104 15.1372C69.7725 15.1372 70.372 15.2782 70.9089 15.5604C71.4457 15.8426 71.8674 16.2472 72.1732 16.7742C72.479 17.3014 72.6325 17.9134 72.6325 18.6106ZM69.1225 16.6063C68.678 16.6063 68.3055 16.7307 68.0031 16.9797C67.7013 17.2287 67.5167 17.569 67.4494 18.0006H70.7829C70.7162 17.5774 70.5317 17.2391 70.2299 16.986C69.9281 16.7328 69.559 16.6063 69.1225 16.6063ZM78.4441 18.4488C78.8463 18.5732 79.1588 18.7642 79.3811 19.0215C79.6034 19.2787 79.7145 19.5859 79.7145 19.9428C79.7145 20.366 79.5677 20.7374 79.274 21.057C78.9803 21.3767 78.5782 21.6236 78.0663 21.7979C77.555 21.9721 76.9764 22.0592 76.3305 22.0592C75.8024 22.0592 75.2824 22.0054 74.7711 21.8974C74.2592 21.7895 73.785 21.6276 73.3492 21.412L73.8773 20.0549C74.5906 20.3952 75.3787 20.5652 76.2422 20.5652C76.7036 20.5652 77.0667 20.4968 77.3307 20.3599C77.5948 20.223 77.7268 20.0298 77.7268 19.7808C77.7268 19.5651 77.6345 19.4013 77.4499 19.2891C77.2654 19.177 76.9973 19.1212 76.645 19.1212H75.2615V17.9134H76.4692C76.8127 17.9134 77.0768 17.8595 77.2613 17.7516C77.4459 17.6438 77.5382 17.486 77.5382 17.2785C77.5382 17.0626 77.423 16.8966 77.192 16.7805C76.9616 16.6643 76.6322 16.6063 76.2045 16.6063C75.5505 16.6063 74.8378 16.7597 74.0659 17.0669L73.5883 15.7222C74.5273 15.3156 75.4413 15.1123 76.3305 15.1123C76.9427 15.1123 77.4897 15.1869 77.972 15.3362C78.4542 15.4857 78.8335 15.7036 79.1103 15.99C79.3871 16.2762 79.5259 16.6102 79.5259 16.9922C79.5259 17.3076 79.4289 17.5919 79.2363 17.845C79.0436 18.0982 78.7789 18.2994 78.4441 18.4488ZM87.916 15.2367L84.8586 22.3456C84.5488 23.1176 84.1648 23.6612 83.7081 23.9766C83.2508 24.292 82.6998 24.4497 82.0538 24.4497C81.7015 24.4497 81.3533 24.3957 81.0098 24.2877C80.6663 24.18 80.3847 24.0305 80.1671 23.8396L80.8838 22.4577C81.0354 22.5906 81.2092 22.6942 81.4059 22.769C81.6032 22.8436 81.7979 22.8809 81.9912 22.8809C82.2593 22.8809 82.4775 22.8166 82.6452 22.6881C82.813 22.5592 82.9638 22.3456 83.0979 22.0469L83.1228 21.9846L80.1921 15.2367H82.2175L84.117 19.7808L86.0286 15.2367H87.916ZM94.872 15.2367V21.9348H92.9092V16.8302H90.7712L90.7079 18.0131C90.6742 18.8928 90.5907 19.6233 90.4567 20.2042C90.3226 20.7852 90.1044 21.2417 89.8026 21.5738C89.5009 21.9056 89.0812 22.0718 88.5444 22.0718C88.2595 22.0718 87.92 22.0218 87.526 21.9223L87.6263 20.3288C87.7604 20.3452 87.8567 20.3536 87.916 20.3536C88.209 20.3536 88.4292 20.2477 88.5761 20.0361C88.7229 19.8245 88.8212 19.5549 88.8718 19.2268C88.9223 18.899 88.9593 18.4655 88.9849 17.926L89.0853 15.2367H94.872ZM100.419 17.378C101.299 17.3864 101.975 17.5835 102.444 17.9694C102.914 18.3554 103.149 18.9012 103.149 19.6066C103.149 20.3452 102.887 20.92 102.363 21.331C101.838 21.7417 101.103 21.9472 100.155 21.9472L96.7587 21.9348V15.2367H98.708V17.378H100.419ZM99.979 20.5652C100.356 20.5736 100.645 20.4947 100.847 20.3288C101.048 20.1626 101.149 19.9136 101.149 19.5818C101.149 19.258 101.05 19.0215 100.853 18.872C100.656 18.7227 100.364 18.6438 99.979 18.6355L98.708 18.623V20.5652H99.979ZM109.438 16.8302H107.149V21.9348H105.199V16.8302H102.91V15.2367H109.438V16.8302ZM113.111 15.1372C114.16 15.1372 114.964 15.384 115.526 15.8779C116.088 16.3718 116.369 17.1166 116.369 18.1126V21.9348H114.532V21.1006C114.164 21.7231 113.476 22.0344 112.47 22.0344C111.95 22.0344 111.499 21.9472 111.117 21.7728C110.736 21.5986 110.444 21.3579 110.243 21.0507C110.042 20.7437 109.941 20.3952 109.941 20.0051C109.941 19.3826 110.178 18.8928 110.652 18.5358C111.126 18.179 111.858 18.0006 112.847 18.0006H114.407C114.407 17.5774 114.277 17.2514 114.017 17.0234C113.757 16.795 113.367 16.6809 112.847 16.6809C112.487 16.6809 112.132 16.737 111.784 16.849C111.436 16.9609 111.141 17.1125 110.897 17.3034L110.193 15.9464C110.562 15.689 111.004 15.4898 111.52 15.3488C112.035 15.2077 112.566 15.1372 113.111 15.1372ZM112.96 20.7272C113.296 20.7272 113.593 20.6503 113.853 20.4968C114.113 20.3433 114.298 20.117 114.407 19.8182V19.1335H113.061C112.256 19.1335 111.853 19.3949 111.853 19.918C111.853 20.167 111.952 20.3639 112.148 20.5094C112.346 20.6546 112.617 20.7272 112.96 20.7272ZM123.469 16.8302H121.476V21.9348H119.526V16.8302H117.237V15.2367H124.062L123.469 16.8302Z" fill="#BFBFBF"/>
</g>
<defs>
<clipPath id="clip0_105_851">
<rect width="130" height="32" fill="white"/>
</clipPath>
</defs>
</svg>
