<svg width="78" height="78" viewBox="0 0 78 78" fill="none" xmlns="http://www.w3.org/2000/svg">
<g clip-path="url(#clip0_393_4207)">
<line x1="0.5" y1="60" x2="0.5" y2="78" stroke="#6962A3"/>
<line y1="77.5" x2="18" y2="77.5" stroke="#6962A3"/>
</g>
<g clip-path="url(#clip1_393_4207)">
<line y1="-0.5" x2="18" y2="-0.5" transform="matrix(0 -1 -1 0 0 18)" stroke="#6962A3"/>
<line y1="-0.5" x2="18" y2="-0.5" transform="matrix(1 0 0 -1 0 0)" stroke="#6962A3"/>
</g>
<g clip-path="url(#clip2_393_4207)">
<line x1="77.5" y1="18" x2="77.5" stroke="#6962A3"/>
<line x1="78" y1="0.5" x2="60" y2="0.5" stroke="#6962A3"/>
</g>
<g clip-path="url(#clip3_393_4207)">
<line y1="-0.5" x2="18" y2="-0.5" transform="matrix(0 1 1 0 78 60)" stroke="#6962A3"/>
<line y1="-0.5" x2="18" y2="-0.5" transform="matrix(-1 0 0 1 78 78)" stroke="#6962A3"/>
</g>
<g clip-path="url(#clip4_393_4207)">
<path fill-rule="evenodd" clip-rule="evenodd" d="M64.4589 51.6244L54.1139 45.4701C53.4867 45.0894 52.7454 44.942 52.0203 45.0537C51.2952 45.1653 50.6327 45.529 50.1491 46.0807L45.7827 50.9734C45.5537 51.2398 45.245 51.4253 44.9023 51.5025C44.5596 51.5797 44.2012 51.5444 43.8801 51.4018C36.0748 48.1316 29.8675 41.9246 26.5971 34.1193C26.4548 33.7984 26.4197 33.4403 26.4969 33.0978C26.5741 32.7554 26.7596 32.447 27.0258 32.2182L31.9185 27.8518C32.4704 27.3681 32.8341 26.7054 32.9458 25.9801C33.0575 25.2548 32.91 24.5134 32.5292 23.8861L26.3751 13.5405C26.0867 13.0474 25.6683 12.6431 25.1655 12.3719C24.6628 12.1007 24.0951 11.9731 23.5247 12.003C21.6097 12.0964 19.7209 12.4863 17.9255 13.1588C17.8576 13.1841 17.7937 13.219 17.7357 13.2624C14.6889 15.5676 12.7816 19.6294 12.0663 25.3341C11.9577 26.1539 11.9826 26.9858 12.1402 27.7977C13.8055 36.6845 18.5754 45.432 25.5715 52.4278C32.5676 59.4235 41.3148 64.1941 50.2025 65.8594C50.6799 65.9517 51.1649 65.9987 51.6512 65.9998C51.9905 65.999 52.3294 65.9768 52.6659 65.9332C58.3706 65.2182 62.4318 63.3105 64.7375 60.2643C64.7809 60.2063 64.8158 60.1424 64.841 60.0745C65.513 58.2787 65.903 56.3898 65.9969 54.4747C66.0271 53.9042 65.8995 53.3364 65.6282 52.8336C65.3569 52.3308 64.9523 51.9124 64.4589 51.6244ZM65.8125 36.2823C65.8125 36.429 65.7909 36.575 65.7482 36.7154L56.8132 27.7804L65.4406 19.153C65.6798 19.4255 65.8119 19.7757 65.8121 20.1383V36.2823H65.8125ZM51.0159 31.254L38.4019 18.6399H63.63L51.0159 31.254ZM36.2812 36.2823V20.1385C36.2808 19.7908 36.4018 19.4538 36.6235 19.1859L45.2185 27.7804L36.333 36.6661C36.2991 36.541 36.2817 36.4119 36.2812 36.2823ZM37.7789 37.78C37.7061 37.7796 37.6334 37.7739 37.5614 37.7629L46.3807 28.9429L50.4348 32.9976C50.5111 33.074 50.6016 33.1346 50.7013 33.1759C50.801 33.2173 50.9079 33.2386 51.0158 33.2386C51.1238 33.2386 51.2306 33.2173 51.3303 33.1759C51.43 33.1346 51.5206 33.074 51.5969 32.9976L55.651 28.9429L64.4787 37.7707C64.4244 37.7765 64.3699 37.7794 64.3153 37.7795L37.7789 37.78Z" fill="#6962A3"/>
</g>
<defs>
<clipPath id="clip0_393_4207">
<rect y="60" width="18" height="18" rx="2" fill="white"/>
</clipPath>
<clipPath id="clip1_393_4207">
<rect width="18" height="18" rx="2" transform="matrix(1 0 0 -1 0 18)" fill="white"/>
</clipPath>
<clipPath id="clip2_393_4207">
<rect x="78" y="18" width="18" height="18" rx="2" transform="rotate(180 78 18)" fill="white"/>
</clipPath>
<clipPath id="clip3_393_4207">
<rect width="18" height="18" rx="2" transform="matrix(-1 0 0 1 78 60)" fill="white"/>
</clipPath>
<clipPath id="clip4_393_4207">
<rect width="54" height="54" fill="white" transform="translate(12 12)"/>
</clipPath>
</defs>
</svg>
