<svg width="42" height="42" viewBox="0 0 42 42" fill="none" xmlns="http://www.w3.org/2000/svg">
<rect width="42" height="42" rx="21" fill="#49A2F5"/>
<path d="M11.1485 20.8109C16.3959 18.5247 19.895 17.0175 21.6457 16.2893C26.6445 14.2101 27.6832 13.849 28.3602 13.837C28.5091 13.8344 28.8421 13.8713 29.0577 14.0463C29.2398 14.1941 29.2899 14.3937 29.3139 14.5338C29.3379 14.6739 29.3677 14.993 29.344 15.2424C29.0731 18.0886 27.901 24.9957 27.3047 28.1835C27.0524 29.5324 26.5556 29.9846 26.0746 30.0289C25.0293 30.1251 24.2355 29.3381 23.2231 28.6745C21.6389 27.636 20.7439 26.9895 19.2061 25.9761C17.4289 24.805 18.581 24.1613 19.5938 23.1094C19.8589 22.8341 24.4645 18.645 24.5536 18.2649C24.5647 18.2174 24.5751 18.0402 24.4698 17.9467C24.3646 17.8531 24.2093 17.8851 24.0972 17.9106C23.9383 17.9466 21.4074 19.6194 16.5046 22.929C15.7863 23.4222 15.1356 23.6626 14.5526 23.65C13.9099 23.6361 12.6736 23.2866 11.7546 22.9879C10.6273 22.6214 9.73141 22.4277 9.80942 21.8054C9.85006 21.4813 10.2964 21.1498 11.1485 20.8109Z" fill="white"/>
</svg>
