<svg width="42" height="42" viewBox="0 0 42 42" fill="none" xmlns="http://www.w3.org/2000/svg">
<circle cx="21" cy="21" r="21" fill="#34D74F"/>
<path d="M1.44818 40.7087C0.634911 40.9655 -0.105933 40.1518 0.22584 39.3661L3.59613 31.385C3.88007 30.7126 4.76542 30.5611 5.25681 31.1008L10.148 36.4733C10.6394 37.013 10.4057 37.8803 9.70968 38.1001L1.44818 40.7087Z" fill="#34D74F"/>
<path d="M30.001 25.421V28.9571C30.001 29.4821 29.5951 29.9177 29.0715 29.9547C28.6341 29.9856 28.2773 30.001 28.001 30.001C19.1644 30.001 12.001 22.8376 12.001 14.001C12.001 13.7247 12.0164 13.3678 12.0473 12.9305C12.0843 12.4069 12.5199 12.001 13.0448 12.001H16.5811C16.8378 12.001 17.0527 12.1954 17.0785 12.4508C17.1016 12.68 17.1232 12.8641 17.143 13.003C17.3453 14.4157 17.7585 15.7603 18.3497 17.004C18.4446 17.2036 18.3827 17.4426 18.2028 17.571L16.0445 19.1128C17.3585 22.1821 19.8199 24.6435 22.8892 25.9575L24.4281 23.8029C24.5582 23.6209 24.8 23.5583 25.002 23.6542C26.2456 24.2449 27.5901 24.6576 29.0026 24.8594C29.1406 24.8792 29.3235 24.9005 29.5512 24.9235C29.8066 24.9493 30.001 25.1643 30.001 25.421Z" fill="white"/>
</svg>
