<svg width="78" height="78" viewBox="0 0 78 78" fill="none" xmlns="http://www.w3.org/2000/svg">
<g clip-path="url(#clip0_105_1121)">
<line x1="0.5" y1="60" x2="0.5" y2="78" stroke="#6962A3"/>
<line y1="77.5" x2="18" y2="77.5" stroke="#6962A3"/>
</g>
<g clip-path="url(#clip1_105_1121)">
<line y1="-0.5" x2="18" y2="-0.5" transform="matrix(0 -1 -1 0 0 18)" stroke="#6962A3"/>
<line y1="-0.5" x2="18" y2="-0.5" transform="matrix(1 0 0 -1 0 0)" stroke="#6962A3"/>
</g>
<g clip-path="url(#clip2_105_1121)">
<line x1="77.5" y1="18" x2="77.5" stroke="#6962A3"/>
<line x1="78" y1="0.5" x2="60" y2="0.5" stroke="#6962A3"/>
</g>
<g clip-path="url(#clip3_105_1121)">
<line y1="-0.5" x2="18" y2="-0.5" transform="matrix(0 1 1 0 78 60)" stroke="#6962A3"/>
<line y1="-0.5" x2="18" y2="-0.5" transform="matrix(-1 0 0 1 78 78)" stroke="#6962A3"/>
</g>
<path d="M34.9613 51.8811C35.004 51.0848 34.9397 50.2865 34.77 49.5073C34.4962 48.1783 33.9399 46.9237 33.1388 45.8286C32.8472 45.4143 32.5197 45.0266 32.16 44.6698C32.007 44.5147 31.8455 44.3682 31.6763 44.2311C30.4479 43.1464 28.9596 42.3983 27.3563 42.0598C27.3225 42.0486 27.2775 42.0486 27.2438 42.0373V41.7448L27.21 34.0948V32.4186L27.1988 30.5061L28.5825 30.4048L29.1675 30.3598L33.33 30.0448C33.6615 30.0227 33.9723 29.8757 34.1999 29.6336C34.4274 29.3914 34.5547 29.0721 34.5563 28.7398C34.5508 28.4058 34.421 28.0857 34.1921 27.8423C33.9633 27.5989 33.6519 27.4496 33.3188 27.4236L32.475 27.3561L32.1938 27.3336L27.1875 26.9173L27.1763 24.3636L32.0813 23.9361C32.4145 23.9104 32.7254 23.7589 32.9511 23.5124C33.1767 23.2659 33.3001 22.9428 33.2963 22.6086C33.2964 22.2714 33.1708 21.9462 32.9441 21.6965C32.7173 21.4469 32.4057 21.2908 32.07 21.2586L28.02 20.8761L27.165 20.7973L27.1538 19.4361L27.1425 17.0623C27.1422 16.5731 26.9477 16.104 26.6018 15.7581C26.2558 15.4121 25.7867 15.2176 25.2975 15.2173C25.0562 15.2155 24.8169 15.2617 24.5936 15.3533C24.3703 15.4448 24.1675 15.5798 23.9968 15.7504C23.8262 15.9211 23.6912 16.1239 23.5997 16.3472C23.5082 16.5705 23.462 16.8098 23.4638 17.0511L23.475 19.9873V21.1123L23.565 42.0261C22.1412 42.2919 20.8 42.8893 19.65 43.7698C19.3081 44.0324 18.9813 44.3141 18.6713 44.6136C18.6382 44.6445 18.608 44.6784 18.5813 44.7148C16.838 46.5308 15.8799 48.9602 15.9145 51.4772C15.9491 53.9943 16.9735 56.3965 18.766 58.1638C20.5585 59.9312 22.9749 60.9216 25.4922 60.9206C28.0095 60.9196 30.4251 59.9274 32.2163 58.1586L32.25 58.1248C32.5403 57.839 32.8074 57.5305 33.0488 57.2023C34.2241 55.6706 34.8926 53.8106 34.9613 51.8811ZM29.1113 55.0536C29.0145 55.1562 28.9091 55.2503 28.7963 55.3348C28.2906 55.7684 27.7044 56.0978 27.0712 56.3044C26.438 56.511 25.7703 56.5905 25.1063 56.5386C24.7556 56.5179 24.4083 56.4576 24.0713 56.3586C23.2164 56.1107 22.4385 55.6501 21.81 55.0198C21.1833 54.395 20.7264 53.6205 20.4825 52.7698C20.389 52.4545 20.3287 52.1302 20.3025 51.8023C20.2401 51.1238 20.3144 50.4396 20.5212 49.7903C20.728 49.141 21.0629 48.5398 21.5063 48.0223C21.5899 47.9156 21.6801 47.8141 21.7763 47.7186C22.7489 46.7459 24.0682 46.1995 25.4438 46.1995C26.8193 46.1995 28.1386 46.7459 29.1113 47.7186C30.0839 48.6913 30.6304 50.0105 30.6304 51.3861C30.6304 52.7617 30.0839 54.0809 29.1113 55.0536Z" fill="#6962A3"/>
<path d="M39.0001 52.5C40.9887 52.5038 42.9536 52.0683 44.7543 51.2245C46.5551 50.3808 48.1472 49.1496 49.4168 47.619C50.6864 46.0884 51.6022 44.2963 52.0987 42.3706C52.5952 40.445 52.6602 38.4334 52.2889 36.4798C51.9177 34.5261 51.1194 32.6786 49.9512 31.0693C48.783 29.46 47.2736 28.1287 45.5311 27.1705C43.7885 26.2123 41.8558 25.6509 39.8711 25.5265C37.8864 25.402 35.8987 25.7176 34.0501 26.4506C34.5804 26.6344 35.0306 26.9963 35.3242 27.4746C35.6178 27.953 35.7366 28.5183 35.6603 29.0743C35.5841 29.6304 35.3175 30.1429 34.906 30.5245C34.4945 30.9062 33.9634 31.1335 33.4032 31.1677L28.3306 31.5525L28.3654 41.1532C29.1276 41.3765 29.8623 41.6844 30.5558 42.0712C29.8491 40.1167 29.842 37.9776 30.5357 36.0184C31.2294 34.0593 32.581 32.4012 34.3601 31.3269C36.1393 30.2525 38.2359 29.8283 40.2928 30.1266C42.3496 30.4248 44.2394 31.4271 45.6402 32.9625C47.0409 34.4979 47.8659 36.4715 47.9745 38.5471C48.0832 40.6226 47.4688 42.6716 46.2361 44.3449C45.0034 46.0182 43.2286 47.2123 41.2141 47.7237C39.1996 48.2351 37.0702 48.0322 35.1886 47.1495C35.4895 47.8333 35.7184 48.5467 35.8714 49.278C36.0611 50.1536 36.133 51.0507 36.0852 51.9454C36.0852 52.0219 36.0638 52.0972 36.0593 52.1704C37.0245 52.3879 38.0107 52.4984 39.0001 52.5Z" fill="#6962A3"/>
<path d="M17.2054 44.5824C17.373 44.3788 17.5429 44.174 17.7274 43.9805C17.7776 43.9186 17.8317 43.86 17.8894 43.805C18.2302 43.4754 18.5897 43.1655 18.966 42.8769C20.0024 42.0829 21.1802 41.4927 22.4366 41.1377L22.3601 22.2275L19.9088 24.6789C19.6996 24.8879 19.5336 25.136 19.4204 25.4092C19.3071 25.6823 19.2489 25.9751 19.2489 26.2708C19.2489 26.5665 19.3071 26.8593 19.4204 27.1324C19.5336 27.4056 19.6996 27.6537 19.9088 27.8627L20.1225 28.0877C20.4457 28.4068 20.6631 28.8173 20.7456 29.2639C20.8281 29.7105 20.7716 30.1717 20.5838 30.5852C20.3925 31.0239 20.2013 31.4627 20.0325 31.9239C19.9171 32.2432 19.729 32.5314 19.4833 32.7657C19.2375 32.9999 18.9406 33.1739 18.6161 33.2739C18.3977 33.3424 18.1701 33.3773 17.9411 33.3774H17.625C17.0288 33.3792 16.4575 33.6168 16.036 34.0384C15.6144 34.46 15.3768 35.0312 15.375 35.6274V42.3774C15.3774 42.9001 15.5612 43.4058 15.895 43.8079C16.2289 44.2101 16.6921 44.4839 17.2054 44.5824Z" fill="#6962A3"/>
<path d="M60.3748 33.375H60.0598C59.8309 33.3749 59.6033 33.34 59.3848 33.2715C59.0603 33.1715 58.7635 32.9975 58.5177 32.7633C58.2719 32.529 58.0839 32.2408 57.9684 31.9215C57.7997 31.4603 57.6084 31.0215 57.4172 30.5827C57.2299 30.1693 57.1734 29.7085 57.2552 29.262C57.3369 28.8159 57.5541 28.4057 57.8773 28.0875L58.0911 27.8625C58.3003 27.6535 58.4662 27.4054 58.5794 27.1322C58.6927 26.8591 58.751 26.5663 58.751 26.2706C58.751 25.9749 58.6927 25.6822 58.5794 25.409C58.4662 25.1359 58.3003 24.8877 58.0911 24.6788L53.3211 19.9088C52.9537 19.5413 52.4706 19.3123 51.9536 19.2606C51.4366 19.209 50.9177 19.3378 50.4849 19.6252C50.3597 19.7076 50.2432 19.8026 50.1373 19.9088L49.9123 20.1225C49.5936 20.4465 49.1826 20.6642 48.7356 20.7458C48.5158 20.7857 48.2913 20.7925 48.0696 20.766C47.8432 20.7394 47.6223 20.678 47.4148 20.5838C46.9761 20.3925 46.5373 20.2013 46.0761 20.0325C45.7567 19.9171 45.4686 19.729 45.2343 19.4833C45 19.2375 44.826 18.9406 44.7261 18.6161C44.6581 18.3972 44.6239 18.1692 44.6248 17.94V17.625C44.623 17.0288 44.3854 16.4575 43.9638 16.036C43.5423 15.6144 42.971 15.3768 42.3748 15.375H35.6248C35.0286 15.3768 34.4574 15.6144 34.0358 16.036C33.6142 16.4575 33.3766 17.0288 33.3748 17.625V17.94C33.3756 18.2795 33.2992 18.6148 33.1513 18.9205C33.0033 19.2261 32.7878 19.494 32.5209 19.704C32.3405 19.8445 32.1388 19.9554 31.9236 20.0325C31.8673 20.0527 31.8111 20.0786 31.7593 20.1L32.1756 20.1394C32.7913 20.1956 33.3636 20.4802 33.78 20.9372C34.1964 21.3942 34.4267 21.9905 34.4256 22.6088C34.4294 23.2258 34.1995 23.8213 33.7821 24.2757C33.3647 24.7301 32.7907 25.0096 32.1756 25.0579L28.3101 25.3954V25.8825L31.7177 26.1637L33.6392 25.4044C35.764 24.5616 38.0568 24.2286 40.3336 24.4322C42.6104 24.6358 44.8078 25.3702 46.7495 26.5765C48.6911 27.7829 50.3229 29.4276 51.514 31.3786C52.7051 33.3297 53.4222 35.5327 53.6079 37.8111C53.7936 40.0894 53.4427 42.3795 52.5832 44.4977C51.7238 46.6159 50.3798 48.5031 48.6591 50.0079C46.9385 51.5128 44.889 52.5933 42.6752 53.1628C40.4614 53.7324 38.145 53.7751 35.9117 53.2875C35.641 54.959 34.963 56.5381 33.9373 57.8854C33.665 58.2535 33.364 58.5995 33.0373 58.9204C33.0889 59.0112 33.1347 59.1051 33.1746 59.2016C33.2109 59.2746 33.2429 59.3498 33.2702 59.4266C33.3355 59.6316 33.3707 59.8449 33.3748 60.06V60.375C33.3766 60.9712 33.6142 61.5424 34.0358 61.964C34.4574 62.3856 35.0286 62.6232 35.6248 62.625H42.3748C42.971 62.6232 43.5423 62.3856 43.9638 61.964C44.3854 61.5424 44.623 60.9712 44.6248 60.375V60.06C44.617 59.7624 44.6831 59.4674 44.8172 59.2016C44.8611 59.0846 44.9153 58.9716 44.9792 58.8641C45.0352 58.7809 45.0968 58.7016 45.1637 58.6267C45.2282 58.5467 45.2985 58.4715 45.3741 58.4017C45.5862 58.2228 45.8225 58.0747 46.0761 57.9619C46.5373 57.7931 46.9761 57.6019 47.4148 57.4106C47.8283 57.2229 48.2894 57.1665 48.736 57.249C49.1826 57.3315 49.5931 57.5489 49.9123 57.8719L50.1373 58.0856C50.3463 58.2948 50.5944 58.4608 50.8676 58.574C51.1407 58.6872 51.4335 58.7455 51.7292 58.7455C52.0249 58.7455 52.3177 58.6872 52.5908 58.574C52.8639 58.4608 53.1121 58.2948 53.3211 58.0856L58.0911 53.3156C58.3003 53.1067 58.4662 52.8585 58.5794 52.5854C58.6927 52.3122 58.751 52.0194 58.751 51.7238C58.751 51.4281 58.6927 51.1353 58.5794 50.8621C58.4662 50.589 58.3003 50.3408 58.0911 50.1319L57.8773 49.9069C57.5543 49.5877 57.3369 49.1771 57.2544 48.7306C57.172 48.284 57.2284 47.8229 57.4161 47.4094C57.6073 46.9706 57.7986 46.5319 57.9673 46.0706C58.1252 45.6438 58.4109 45.276 58.7853 45.0174C59.1597 44.7587 59.6047 44.6217 60.0598 44.625H60.3748C60.971 44.6232 61.5423 44.3856 61.9638 43.964C62.3854 43.5425 62.623 42.9712 62.6248 42.375V35.625C62.623 35.0288 62.3854 34.4575 61.9638 34.036C61.5423 33.6144 60.971 33.3768 60.3748 33.375Z" fill="#6962A3"/>
<defs>
<clipPath id="clip0_105_1121">
<rect y="60" width="18" height="18" rx="2" fill="white"/>
</clipPath>
<clipPath id="clip1_105_1121">
<rect width="18" height="18" rx="2" transform="matrix(1 0 0 -1 0 18)" fill="white"/>
</clipPath>
<clipPath id="clip2_105_1121">
<rect x="78" y="18" width="18" height="18" rx="2" transform="rotate(180 78 18)" fill="white"/>
</clipPath>
<clipPath id="clip3_105_1121">
<rect width="18" height="18" rx="2" transform="matrix(-1 0 0 1 78 60)" fill="white"/>
</clipPath>
</defs>
</svg>
