<svg width="78" height="78" viewBox="0 0 78 78" fill="none" xmlns="http://www.w3.org/2000/svg">
<g clip-path="url(#clip0_105_1165)">
<line x1="0.5" y1="60" x2="0.5" y2="78" stroke="#6962A3"/>
<line y1="77.5" x2="18" y2="77.5" stroke="#6962A3"/>
</g>
<g clip-path="url(#clip1_105_1165)">
<line y1="-0.5" x2="18" y2="-0.5" transform="matrix(0 -1 -1 0 0 18)" stroke="#6962A3"/>
<line y1="-0.5" x2="18" y2="-0.5" transform="matrix(1 0 0 -1 0 0)" stroke="#6962A3"/>
</g>
<g clip-path="url(#clip2_105_1165)">
<line x1="77.5" y1="18" x2="77.5" stroke="#6962A3"/>
<line x1="78" y1="0.5" x2="60" y2="0.5" stroke="#6962A3"/>
</g>
<g clip-path="url(#clip3_105_1165)">
<line y1="-0.5" x2="18" y2="-0.5" transform="matrix(0 1 1 0 78 60)" stroke="#6962A3"/>
<line y1="-0.5" x2="18" y2="-0.5" transform="matrix(-1 0 0 1 78 78)" stroke="#6962A3"/>
</g>
<g clip-path="url(#clip4_105_1165)">
<path d="M51.5353 27.4287C45.1445 27.4287 39.9639 32.6094 39.9639 39.0001C39.9639 45.3909 45.1445 50.5716 51.5353 50.5716C57.926 50.5716 63.1067 45.3909 63.1067 39.0001C63.0997 32.6122 57.9232 27.4358 51.5353 27.4287ZM51.5353 31.2859C47.2746 31.2859 43.821 34.7395 43.821 39.0001C43.821 43.2608 47.2746 46.7144 51.5353 46.7144V48.643C46.2096 48.643 41.8924 44.3258 41.8924 39.0001C41.8924 33.6744 46.2096 29.3573 51.5353 29.3573V31.2859Z" fill="#6962A3"/>
<path d="M57.4449 51.3187C57.5057 51.2283 57.5542 51.1261 57.614 51.0381C56.6045 51.5522 55.5342 51.9355 54.4287 52.1799V53.4643C54.9612 53.4643 55.393 53.8961 55.393 54.4286V59.7699L55.9717 60.2143L60.2144 55.9716L57.4854 52.4478C57.2298 52.1196 57.2133 51.6643 57.4449 51.3187Z" fill="#6962A3"/>
<path d="M49.6074 64.0716C49.6074 65.1367 50.4709 66.0002 51.536 66.0002C52.601 66.0002 53.4646 65.1367 53.4646 64.0716V55.3931H49.6074V64.0716Z" fill="#6962A3"/>
<path d="M64.6426 35.8267C65.1662 37.9101 65.1662 40.0901 64.6426 42.1736L65.9995 42.0051V35.9952L64.6426 35.8267Z" fill="#6962A3"/>
<path d="M31.2861 39.0002C31.2843 41.288 32.2989 43.4581 34.0556 44.9243C35.8119 46.39 38.1289 47.0002 40.3795 46.5892C37.255 42.0121 37.255 35.9882 40.3795 31.4111C38.1289 31.0001 35.8119 31.6103 34.0556 33.076C32.2989 34.5422 31.2843 36.7123 31.2861 39.0002Z" fill="#6962A3"/>
<path d="M45.2681 27.0522C39.5878 24.0642 32.5892 25.488 28.5282 30.4582C24.4672 35.4285 24.4672 42.5711 28.5282 47.5414C32.5892 52.5116 39.5878 53.9354 45.2681 50.9474C43.945 50.2487 42.7462 49.3367 41.7203 48.2471C37.7732 49.4214 33.5158 47.959 31.123 44.6071C28.7302 41.2551 28.7302 36.7539 31.123 33.4019C33.5158 30.05 37.7732 28.5881 41.7203 29.7619C42.7453 28.669 43.944 27.7537 45.2681 27.0522Z" fill="#6962A3"/>
<path d="M51.5356 52.5001C51.2098 52.5001 50.8915 52.4742 50.5713 52.4512V53.4644H52.4999V52.4512C52.1797 52.4742 51.8614 52.5001 51.5356 52.5001Z" fill="#6962A3"/>
<path d="M39 54.4286C30.4792 54.4286 23.5714 47.5208 23.5714 39C23.5714 30.4792 30.4792 23.5714 39 23.5714C42.0157 23.5681 44.9651 24.4571 47.4771 26.1258C50.8346 25.0621 54.4757 25.362 57.6138 26.962C57.554 26.8702 57.5055 26.7689 57.4448 26.6813C57.215 26.3362 57.2315 25.8833 57.4853 25.556L60.2143 22.0285L55.9715 17.7857L52.4477 20.5157C52.1196 20.7699 51.6657 20.7855 51.3205 20.5543C48.9037 18.9313 46.1869 17.8069 43.3299 17.2466C42.9207 17.1666 42.6095 16.8327 42.5582 16.4193L42.0059 12H35.9941L35.4437 16.4193C35.3924 16.8327 35.0812 17.1666 34.6725 17.2466C31.8149 17.8069 29.0987 18.9313 26.6813 20.5543C26.3362 20.7855 25.8823 20.7699 25.5541 20.5157L22.0285 17.7857L17.7857 22.0285L20.5147 25.5523C20.7685 25.88 20.7845 26.3334 20.5543 26.6785C18.9317 29.0958 17.8074 31.8126 17.2466 34.6692C17.1666 35.0779 16.8332 35.3891 16.4203 35.4409L12 35.9941V42.0059L16.4203 42.5563C16.8332 42.6081 17.1666 42.9193 17.2466 43.3275C17.8074 46.1846 18.9317 48.9014 20.5543 51.3187C20.7845 51.6638 20.7685 52.1172 20.5147 52.4449L17.7857 55.9715L22.0285 60.2143L25.5523 57.4843C25.8804 57.2301 26.3343 57.2146 26.6795 57.4457C29.0963 59.0687 31.8131 60.1931 34.6701 60.7534C35.0793 60.8334 35.3905 61.1673 35.4418 61.5807L35.9941 66H42.0059L42.5553 61.5807C42.6067 61.1673 42.9179 60.8334 43.3266 60.7534C44.8196 60.4535 46.2783 60.0005 47.6786 59.4026V54.4286C47.6786 53.8961 48.1103 53.4643 48.6429 53.4643V52.1798C48.2483 52.0932 47.858 51.9948 47.4771 51.8743C44.9651 53.5429 42.0157 54.4319 39 54.4286Z" fill="#6962A3"/>
</g>
<defs>
<clipPath id="clip0_105_1165">
<rect y="60" width="18" height="18" rx="2" fill="white"/>
</clipPath>
<clipPath id="clip1_105_1165">
<rect width="18" height="18" rx="2" transform="matrix(1 0 0 -1 0 18)" fill="white"/>
</clipPath>
<clipPath id="clip2_105_1165">
<rect x="78" y="18" width="18" height="18" rx="2" transform="rotate(180 78 18)" fill="white"/>
</clipPath>
<clipPath id="clip3_105_1165">
<rect width="18" height="18" rx="2" transform="matrix(-1 0 0 1 78 60)" fill="white"/>
</clipPath>
<clipPath id="clip4_105_1165">
<rect width="54" height="54" fill="white" transform="translate(12 12)"/>
</clipPath>
</defs>
</svg>
