<svg width="78" height="78" viewBox="0 0 78 78" fill="none" xmlns="http://www.w3.org/2000/svg">
<g clip-path="url(#clip0_105_1144)">
<line x1="0.5" y1="60" x2="0.5" y2="78" stroke="#6962A3"/>
<line y1="77.5" x2="18" y2="77.5" stroke="#6962A3"/>
</g>
<g clip-path="url(#clip1_105_1144)">
<line y1="-0.5" x2="18" y2="-0.5" transform="matrix(0 -1 -1 0 0 18)" stroke="#6962A3"/>
<line y1="-0.5" x2="18" y2="-0.5" transform="matrix(1 0 0 -1 0 0)" stroke="#6962A3"/>
</g>
<g clip-path="url(#clip2_105_1144)">
<line x1="77.5" y1="18" x2="77.5" stroke="#6962A3"/>
<line x1="78" y1="0.5" x2="60" y2="0.5" stroke="#6962A3"/>
</g>
<g clip-path="url(#clip3_105_1144)">
<line y1="-0.5" x2="18" y2="-0.5" transform="matrix(0 1 1 0 78 60)" stroke="#6962A3"/>
<line y1="-0.5" x2="18" y2="-0.5" transform="matrix(-1 0 0 1 78 78)" stroke="#6962A3"/>
</g>
<path d="M38.5974 38.3274C38.2675 38.6573 37.7343 38.6573 37.4044 38.3274L32.4887 33.4117L30.1025 35.7978L38.0009 43.697L49.3088 32.3899L46.9227 30.0029L38.5974 38.3274Z" fill="#6962A3"/>
<path d="M54.0805 53.4654C58.2571 49.0534 60.558 42.9539 60.558 36.2917V18.7147L39.0002 15.3853L17.4424 18.7147V36.2925C17.4424 42.9548 19.7433 49.0534 23.9199 53.4654C27.672 57.4378 32.7446 60.5031 39.0002 62.5821C45.2558 60.5039 50.3284 57.4369 54.0805 53.4654ZM38.0012 45.7341C37.7768 45.7341 37.5624 45.6455 37.4047 45.4869L28.3133 36.3946C27.9834 36.0647 27.9834 35.5315 28.3133 35.2016L31.8924 31.6224C32.2224 31.2925 32.7556 31.2925 33.0855 31.6224L38.0012 36.5381L46.3265 28.2136C46.4851 28.055 46.6986 27.9664 46.923 27.9664C47.1474 27.9664 47.3618 28.055 47.5195 28.2136L51.0987 31.7937C51.4286 32.1236 51.4286 32.6568 51.0987 32.9867L38.5977 45.4869C38.4391 45.6455 38.2256 45.7341 38.0012 45.7341Z" fill="#6962A3"/>
<defs>
<clipPath id="clip0_105_1144">
<rect y="60" width="18" height="18" rx="2" fill="white"/>
</clipPath>
<clipPath id="clip1_105_1144">
<rect width="18" height="18" rx="2" transform="matrix(1 0 0 -1 0 18)" fill="white"/>
</clipPath>
<clipPath id="clip2_105_1144">
<rect x="78" y="18" width="18" height="18" rx="2" transform="rotate(180 78 18)" fill="white"/>
</clipPath>
<clipPath id="clip3_105_1144">
<rect width="18" height="18" rx="2" transform="matrix(-1 0 0 1 78 60)" fill="white"/>
</clipPath>
</defs>
</svg>
