<svg width="78" height="78" viewBox="0 0 78 78" fill="none" xmlns="http://www.w3.org/2000/svg">
<g clip-path="url(#clip0_105_1192)">
<line x1="0.5" y1="60" x2="0.5" y2="78" stroke="#6962A3"/>
<line y1="77.5" x2="18" y2="77.5" stroke="#6962A3"/>
</g>
<g clip-path="url(#clip1_105_1192)">
<line y1="-0.5" x2="18" y2="-0.5" transform="matrix(0 -1 -1 0 0 18)" stroke="#6962A3"/>
<line y1="-0.5" x2="18" y2="-0.5" transform="matrix(1 0 0 -1 0 0)" stroke="#6962A3"/>
</g>
<g clip-path="url(#clip2_105_1192)">
<line x1="77.5" y1="18" x2="77.5" stroke="#6962A3"/>
<line x1="78" y1="0.5" x2="60" y2="0.5" stroke="#6962A3"/>
</g>
<g clip-path="url(#clip3_105_1192)">
<line y1="-0.5" x2="18" y2="-0.5" transform="matrix(0 1 1 0 78 60)" stroke="#6962A3"/>
<line y1="-0.5" x2="18" y2="-0.5" transform="matrix(-1 0 0 1 78 78)" stroke="#6962A3"/>
</g>
<path d="M11.211 44.1199C11.3992 43.9223 11.5042 43.6599 11.5042 43.3871C11.5042 43.1142 11.3992 42.8518 11.211 42.6543L7.31982 38.5391H12.1198V44.9391C12.1198 45.2225 12.2324 45.4944 12.4329 45.6948C12.6333 45.8953 12.9052 46.0079 13.1886 46.0079H16.9902C17.2256 46.7724 17.5055 47.5225 17.8286 48.2543H7.31982L11.211 44.1199Z" fill="#6962A3"/>
<path d="M31.9601 58.8399C29.0162 57.7797 26.3456 56.0767 24.1425 53.8548C21.9394 51.6329 20.2592 48.9479 19.2241 45.9951H26.2641C27.1921 51.4351 29.2401 55.9599 31.9601 58.8399Z" fill="#6962A3"/>
<path d="M66.789 44.1201L70.6802 48.2289H60.0498C60.3676 47.4964 60.6433 46.7464 60.8754 45.9825H64.6642C64.9477 45.9825 65.2195 45.8699 65.42 45.6694C65.6204 45.469 65.733 45.1971 65.733 44.9137V38.5137H70.6802L66.789 42.6353C66.5951 42.8337 66.4866 43.1002 66.4866 43.3777C66.4866 43.6551 66.5951 43.9216 66.789 44.1201Z" fill="#6962A3"/>
<path d="M57.7968 32.0114C57.8533 31.7505 57.8423 31.4796 57.7648 31.2242C57.6751 30.9521 57.5114 30.7105 57.2921 30.5262C57.0729 30.342 56.8066 30.2224 56.5232 30.181L53.0416 29.6754L51.4928 26.5394C51.3668 26.2818 51.1711 26.0649 50.9278 25.9132C50.6845 25.7616 50.4035 25.6814 50.1168 25.6818C50.0238 25.6873 49.9316 25.7023 49.8416 25.7266C48.9425 23.3068 47.594 21.0789 45.8672 19.1602C48.8107 20.2242 51.4809 21.9292 53.6846 24.1518C55.8884 26.3743 57.5706 29.0589 58.6096 32.0114H57.7968Z" fill="#6962A3"/>
<path d="M31.9602 19.1602C30.229 21.0768 28.878 23.3052 27.9794 25.7266C27.8894 25.7023 27.7972 25.6873 27.7042 25.6818C27.4167 25.6817 27.135 25.762 26.8907 25.9135C26.6465 26.065 26.4494 26.2818 26.3218 26.5394L24.773 29.6754L21.2978 30.181C21.0145 30.2207 20.7482 30.3397 20.5296 30.5243C20.311 30.7088 20.1491 30.9515 20.0626 31.2242C19.9768 31.4779 19.9635 31.7505 20.0242 32.0114H19.2178C20.2528 29.0567 21.9336 26.37 24.1379 24.1469C26.3421 21.9238 29.0144 20.2202 31.9602 19.1602Z" fill="#6962A3"/>
<path d="M37.8417 18.0718V32.011H35.3905C35.4393 31.7488 35.424 31.4787 35.3457 31.2238C35.2578 30.9519 35.0955 30.71 34.8772 30.5256C34.6589 30.3413 34.3933 30.2217 34.1105 30.1806L30.6353 29.675L29.6177 27.627C31.4417 22.4046 34.4433 18.7182 37.8417 18.0718Z" fill="#6962A3"/>
<path d="M48.203 27.627L47.1854 29.675L43.7166 30.1806C43.4332 30.222 43.1669 30.3416 42.9476 30.5258C42.7283 30.7101 42.5647 30.9518 42.475 31.2238C42.4048 31.4815 42.4048 31.7533 42.475 32.011H39.979V18.0718C43.3774 18.7182 46.3854 22.4046 48.203 27.627Z" fill="#6962A3"/>
<path d="M53.1438 33.9246C52.9654 34.0992 52.832 34.3144 52.7551 34.5518C52.6782 34.7893 52.66 35.0418 52.7022 35.2878L53.1374 37.8478L50.8334 36.6382C50.6126 36.5248 50.368 36.4656 50.1198 36.4656C49.8716 36.4656 49.627 36.5248 49.4062 36.6382L47.0958 37.8478L47.5374 35.2878C47.5796 35.0418 47.5614 34.7893 47.4845 34.5518C47.4076 34.3144 47.2742 34.0992 47.0958 33.9246L45.2334 32.1198L47.7934 31.7486C48.0385 31.7113 48.2711 31.6156 48.4715 31.4698C48.672 31.3239 48.8345 31.132 48.9454 30.9102L50.0974 28.5742L51.2558 30.9038C51.3675 31.1318 51.5343 31.3285 51.741 31.476C51.9477 31.6234 52.1878 31.7171 52.4398 31.7486L54.9998 32.1198L53.1438 33.9246Z" fill="#6962A3"/>
<path d="M30.7312 33.9247C30.553 34.0995 30.4193 34.3146 30.3414 34.5518C30.2634 34.789 30.2435 35.0414 30.2832 35.2879L30.7248 37.8479L28.4144 36.6319C28.1971 36.5185 27.9556 36.4592 27.7104 36.4591C27.4611 36.4584 27.2152 36.5176 26.9936 36.6319L24.6832 37.8415L25.1248 35.2815C25.1687 35.0355 25.1513 34.7824 25.0743 34.5447C24.9973 34.307 24.863 34.0918 24.6832 33.9183L22.8208 32.1135L25.3808 31.7423C25.6267 31.7049 25.8601 31.6093 26.0616 31.4635C26.2631 31.3176 26.4268 31.1258 26.5392 30.9039L27.6976 28.5679L28.8496 30.9039C28.9628 31.132 29.1308 31.3286 29.3385 31.476C29.5463 31.6234 29.7873 31.7171 30.04 31.7487L32.6 32.1199L30.7312 33.9247Z" fill="#6962A3"/>
<path d="M63.6016 34.149V43.8514H14.2256V34.149H21.848L23 35.237L22.36 38.6802C22.3117 38.9634 22.3442 39.2544 22.4536 39.52C22.563 39.7856 22.745 40.015 22.9788 40.1819C23.2125 40.3489 23.4885 40.4466 23.7753 40.464C24.062 40.4814 24.3478 40.4177 24.6 40.2802L27.7104 38.6546L30.8144 40.2802C31.0347 40.3986 31.2811 40.4602 31.5312 40.4594C31.7546 40.4599 31.9753 40.4115 32.178 40.3176C32.3807 40.2236 32.5603 40.0864 32.7042 39.9156C32.8482 39.7448 32.953 39.5446 33.0113 39.3289C33.0696 39.1133 33.0799 38.8875 33.0416 38.6674L32.4464 35.2242L33.5664 34.1362H44.2544L45.4 35.237L44.8112 38.6802C44.768 38.9582 44.8023 39.2427 44.9103 39.5025C45.0183 39.7622 45.1958 39.9872 45.4234 40.1525C45.651 40.3179 45.9197 40.4173 46.2001 40.4399C46.4805 40.4624 46.7617 40.4072 47.0128 40.2802L50.1168 38.6546L53.2272 40.2802C53.4801 40.4158 53.7661 40.4775 54.0524 40.4583C54.3387 40.439 54.6139 40.3396 54.8464 40.1714C55.0763 40.0012 55.2543 39.7704 55.3605 39.5048C55.4668 39.2392 55.497 38.9493 55.448 38.6674L54.8592 35.2242L55.9792 34.1362L63.6016 34.149Z" fill="#6962A3"/>
<path d="M37.8415 45.9888V59.928C33.5535 59.1216 29.8863 53.4704 28.4399 45.9888H37.8415Z" fill="#6962A3"/>
<path d="M49.3806 45.9888C47.9598 53.4704 44.2798 59.1216 39.979 59.928V45.9888H49.3806Z" fill="#6962A3"/>
<path d="M58.6226 45.989C57.5877 48.9498 55.9024 51.6411 53.6906 53.865C51.4789 56.0889 48.7969 57.789 45.8418 58.8402C48.5746 55.9666 50.6354 51.429 51.6018 45.9634L58.6226 45.989Z" fill="#6962A3"/>
<defs>
<clipPath id="clip0_105_1192">
<rect y="60" width="18" height="18" rx="2" fill="white"/>
</clipPath>
<clipPath id="clip1_105_1192">
<rect width="18" height="18" rx="2" transform="matrix(1 0 0 -1 0 18)" fill="white"/>
</clipPath>
<clipPath id="clip2_105_1192">
<rect x="78" y="18" width="18" height="18" rx="2" transform="rotate(180 78 18)" fill="white"/>
</clipPath>
<clipPath id="clip3_105_1192">
<rect width="18" height="18" rx="2" transform="matrix(-1 0 0 1 78 60)" fill="white"/>
</clipPath>
</defs>
</svg>
