<svg width="78" height="78" viewBox="0 0 78 78" fill="none" xmlns="http://www.w3.org/2000/svg">
<g clip-path="url(#clip0_193_16)">
<line x1="0.5" y1="60" x2="0.5" y2="78" stroke="white"/>
<line y1="77.5" x2="18" y2="77.5" stroke="white"/>
</g>
<g clip-path="url(#clip1_193_16)">
<line y1="-0.5" x2="18" y2="-0.5" transform="matrix(0 -1 -1 0 0 18)" stroke="white"/>
<line y1="-0.5" x2="18" y2="-0.5" transform="matrix(1 0 0 -1 0 0)" stroke="white"/>
</g>
<g clip-path="url(#clip2_193_16)">
<line x1="77.5" y1="18" x2="77.5" stroke="white"/>
<line x1="78" y1="0.5" x2="60" y2="0.5" stroke="white"/>
</g>
<g clip-path="url(#clip3_193_16)">
<line y1="-0.5" x2="18" y2="-0.5" transform="matrix(0 1 1 0 78 60)" stroke="white"/>
<line y1="-0.5" x2="18" y2="-0.5" transform="matrix(-1 0 0 1 78 78)" stroke="white"/>
</g>
<path fill-rule="evenodd" clip-rule="evenodd" d="M19.125 66.625C18.625 66.625 18.375 66.25 18.375 65.875V54.25C18.375 53.875 18.625 53.5 19.125 53.5C19.5 53.5 19.875 53.875 19.875 54.25V65.875C19.875 66.25 19.5 66.625 19.125 66.625ZM19.125 50.5C18.625 50.5 18.375 50.25 18.375 49.75V16.625C18.375 16.25 18.625 15.875 19.125 15.875C19.5 15.875 19.875 16.25 19.875 16.625V49.75C19.875 50.25 19.5 50.5 19.125 50.5Z" fill="white"/>
<path fill-rule="evenodd" clip-rule="evenodd" d="M11.1252 66.625C11.0002 66.625 10.8752 66.625 10.7502 66.5C10.3752 66.25 10.2502 65.875 10.5002 65.5L17.2502 53.625C17.5002 53.25 18.0002 53.125 18.3752 53.375C18.6252 53.5 18.7502 54 18.6252 54.375L11.7502 66.25C11.6252 66.5 11.3752 66.625 11.1252 66.625Z" fill="white"/>
<path fill-rule="evenodd" clip-rule="evenodd" d="M27 66.625C26.75 66.625 26.5 66.5 26.375 66.25L19.5 54.375C19.375 54 19.5 53.5 19.875 53.375C20.125 53.125 20.625 53.25 20.875 53.625L27.75 65.5C27.875 65.875 27.75 66.25 27.375 66.5C27.25 66.625 27.125 66.625 27 66.625Z" fill="white"/>
<path fill-rule="evenodd" clip-rule="evenodd" d="M10 26.125C8.375 26.125 7 24.75 7 23.125C7 21.5 8.375 20.125 10 20.125C11.75 20.125 13.125 21.5 13.125 23.125C13.125 24.75 11.75 26.125 10 26.125Z" fill="white"/>
<path fill-rule="evenodd" clip-rule="evenodd" d="M22.75 17.375H15.375C15 17.375 14.625 17 14.625 16.625V12.125C14.625 11.75 15 11.375 15.375 11.375H22.75C23.125 11.375 23.5 11.75 23.5 12.125V16.625C23.5 17 23.125 17.375 22.75 17.375Z" fill="white"/>
<path fill-rule="evenodd" clip-rule="evenodd" d="M62.625 17.375H55.25C54.875 17.375 54.5 17 54.5 16.625V12.125C54.5 11.75 54.875 11.375 55.25 11.375H62.625C63 11.375 63.375 11.75 63.375 12.125V16.625C63.375 17 63 17.375 62.625 17.375Z" fill="white"/>
<path fill-rule="evenodd" clip-rule="evenodd" d="M68 26.125C66.25 26.125 64.875 24.75 64.875 23.125C64.875 21.5 66.25 20.125 68 20.125C69.625 20.125 71 21.5 71 23.125C71 24.75 69.625 26.125 68 26.125Z" fill="white"/>
<path fill-rule="evenodd" clip-rule="evenodd" d="M58.875 55C57.25 55 56 53.75 56 52C56 50.375 57.25 49 58.875 49C60.625 49 61.875 50.375 61.875 52C61.875 53.75 60.625 55 58.875 55Z" fill="white"/>
<path fill-rule="evenodd" clip-rule="evenodd" d="M51.125 56.5H26.875C25.5 56.5 24.375 55.375 24.375 54V23.125C24.375 22.75 24.75 22.375 25.125 22.375H52.875C53.25 22.375 53.625 22.75 53.625 23.125V54C53.625 55.375 52.5 56.5 51.125 56.5Z" fill="white"/>
<path fill-rule="evenodd" clip-rule="evenodd" d="M19.125 55C17.375 55 16.125 53.75 16.125 52C16.125 50.375 17.375 49 19.125 49C20.75 49 22 50.375 22 52C22 53.75 20.75 55 19.125 55Z" fill="white"/>
<path fill-rule="evenodd" clip-rule="evenodd" d="M58.875 66.625C58.5 66.625 58.125 66.25 58.125 65.875V54.25C58.125 53.875 58.5 53.5 58.875 53.5C59.375 53.5 59.625 53.875 59.625 54.25V65.875C59.625 66.25 59.375 66.625 58.875 66.625ZM58.875 50.5C58.5 50.5 58.125 50.25 58.125 49.75V16.625C58.125 16.25 58.5 15.875 58.875 15.875C59.375 15.875 59.625 16.25 59.625 16.625V49.75C59.625 50.25 59.375 50.5 58.875 50.5Z" fill="white"/>
<path fill-rule="evenodd" clip-rule="evenodd" d="M51 66.625C50.875 66.625 50.75 66.625 50.625 66.5C50.25 66.25 50.125 65.875 50.25 65.5L57.125 53.625C57.375 53.25 57.875 53.125 58.125 53.375C58.5 53.5 58.625 54 58.5 54.375L51.625 66.25C51.5 66.5 51.25 66.625 51 66.625Z" fill="white"/>
<path fill-rule="evenodd" clip-rule="evenodd" d="M66.8752 66.625C66.6252 66.625 66.3752 66.5 66.2502 66.25L59.3752 54.375C59.2502 54 59.3752 53.5 59.6252 53.375C60.0002 53.125 60.5002 53.25 60.7502 53.625L67.5002 65.5C67.7502 65.875 67.6252 66.25 67.2502 66.5C67.1252 66.625 67.0002 66.625 66.8752 66.625Z" fill="white"/>
<path fill-rule="evenodd" clip-rule="evenodd" d="M65.625 23.875H12.375C12 23.875 11.625 23.5 11.625 23.125C11.625 22.75 12 22.375 12.375 22.375H65.625C66 22.375 66.375 22.75 66.375 23.125C66.375 23.5 66 23.875 65.625 23.875Z" fill="white"/>
<defs>
<clipPath id="clip0_193_16">
<rect y="60" width="18" height="18" rx="2" fill="white"/>
</clipPath>
<clipPath id="clip1_193_16">
<rect width="18" height="18" rx="2" transform="matrix(1 0 0 -1 0 18)" fill="white"/>
</clipPath>
<clipPath id="clip2_193_16">
<rect x="78" y="18" width="18" height="18" rx="2" transform="rotate(180 78 18)" fill="white"/>
</clipPath>
<clipPath id="clip3_193_16">
<rect width="18" height="18" rx="2" transform="matrix(-1 0 0 1 78 60)" fill="white"/>
</clipPath>
</defs>
</svg>
