<svg width="78" height="78" viewBox="0 0 78 78" fill="none" xmlns="http://www.w3.org/2000/svg">
<g clip-path="url(#clip0_193_160)">
<line x1="0.5" y1="60" x2="0.5" y2="78" stroke="#6962A3"/>
<line y1="77.5" x2="18" y2="77.5" stroke="#6962A3"/>
</g>
<g clip-path="url(#clip1_193_160)">
<line y1="-0.5" x2="18" y2="-0.5" transform="matrix(0 -1 -1 0 0 18)" stroke="#6962A3"/>
<line y1="-0.5" x2="18" y2="-0.5" transform="matrix(1 0 0 -1 0 0)" stroke="#6962A3"/>
</g>
<g clip-path="url(#clip2_193_160)">
<line x1="77.5" y1="18" x2="77.5" stroke="#6962A3"/>
<line x1="78" y1="0.5" x2="60" y2="0.5" stroke="#6962A3"/>
</g>
<g clip-path="url(#clip3_193_160)">
<line y1="-0.5" x2="18" y2="-0.5" transform="matrix(0 1 1 0 78 60)" stroke="#6962A3"/>
<line y1="-0.5" x2="18" y2="-0.5" transform="matrix(-1 0 0 1 78 78)" stroke="#6962A3"/>
</g>
<path d="M25 68.007H28V54H50V68.007H53V45.007H25V68.007ZM44 47.007H46V51H44V47.007ZM38 47.007H40V51H38V47.007ZM32 47.007H34V51H32V47.007Z" fill="#6962A3"/>
<path d="M33 25H27V19.289C27.095 19.246 27.191 19.208 27.285 19.161C28.8018 18.415 29.979 17.1213 30.579 15.541C31.0195 14.3898 31.076 13.127 30.74 11.941L19.425 17.641C20.1776 18.6179 21.2262 19.3248 22.414 19.656C23.2195 19.8883 24.0625 19.9617 24.896 19.872V25H19V27.007H33V25Z" fill="#6962A3"/>
<path d="M23 11.108V13.596L24.884 12.648L23 11.108Z" fill="#6962A3"/>
<path d="M65 10H45V22H65V10ZM51 19H47V17H51V19ZM63 19H53.4V17H63V19ZM63 15H47V13H63V15Z" fill="#6962A3"/>
<path d="M51 24H59V27.007H51V24Z" fill="#6962A3"/>
<path d="M10 29.007V68.007H23V44.007C23 43.7417 23.1054 43.4874 23.2929 43.2999C23.4804 43.1123 23.7348 43.007 24 43.007H54C54.2652 43.007 54.5196 43.1123 54.7071 43.2999C54.8946 43.4874 55 43.7417 55 44.007V68.007H68V29.007H10ZM19 59.007H13V50.007H19V59.007ZM19 48.007H13V39.007H19V48.007ZM39 40.007C38.2089 40.007 37.4355 39.7724 36.7777 39.3328C36.1199 38.8933 35.6072 38.2686 35.3045 37.5377C35.0017 36.8068 34.9225 36.0025 35.0769 35.2266C35.2312 34.4507 35.6122 33.7379 36.1716 33.1785C36.731 32.6191 37.4437 32.2382 38.2196 32.0838C38.9956 31.9295 39.7998 32.0087 40.5307 32.3114C41.2616 32.6142 41.8864 33.1269 42.3259 33.7847C42.7654 34.4425 43 35.2158 43 36.007C43 37.0678 42.5786 38.0852 41.8284 38.8354C41.0783 39.5855 40.0609 40.007 39 40.007ZM65 59.007H59V50.007H65V59.007ZM65 48.007H59V39.007H65V48.007Z" fill="#6962A3"/>
<defs>
<clipPath id="clip0_193_160">
<rect y="60" width="18" height="18" rx="2" fill="white"/>
</clipPath>
<clipPath id="clip1_193_160">
<rect width="18" height="18" rx="2" transform="matrix(1 0 0 -1 0 18)" fill="white"/>
</clipPath>
<clipPath id="clip2_193_160">
<rect x="78" y="18" width="18" height="18" rx="2" transform="rotate(180 78 18)" fill="white"/>
</clipPath>
<clipPath id="clip3_193_160">
<rect width="18" height="18" rx="2" transform="matrix(-1 0 0 1 78 60)" fill="white"/>
</clipPath>
</defs>
</svg>
