<svg width="78" height="78" viewBox="0 0 78 78" fill="none" xmlns="http://www.w3.org/2000/svg">
<g clip-path="url(#clip0_193_528)">
<line x1="0.5" y1="60" x2="0.5" y2="78" stroke="white"/>
<line y1="77.5" x2="18" y2="77.5" stroke="white"/>
</g>
<g clip-path="url(#clip1_193_528)">
<line y1="-0.5" x2="18" y2="-0.5" transform="matrix(0 -1 -1 0 0 18)" stroke="white"/>
<line y1="-0.5" x2="18" y2="-0.5" transform="matrix(1 0 0 -1 0 0)" stroke="white"/>
</g>
<g clip-path="url(#clip2_193_528)">
<line x1="77.5" y1="18" x2="77.5" stroke="white"/>
<line x1="78" y1="0.5" x2="60" y2="0.5" stroke="white"/>
</g>
<g clip-path="url(#clip3_193_528)">
<line y1="-0.5" x2="18" y2="-0.5" transform="matrix(0 1 1 0 78 60)" stroke="white"/>
<line y1="-0.5" x2="18" y2="-0.5" transform="matrix(-1 0 0 1 78 78)" stroke="white"/>
</g>
<path fill-rule="evenodd" clip-rule="evenodd" d="M65.3945 59.2773H50.668C50.7812 55.0859 51.1211 51.5742 47.3828 48.2891C50.8945 44.2109 57.2383 44.3242 60.6367 48.4023C60.8633 48.6289 61.2031 48.7422 61.543 48.5156C62.4492 47.8359 65.3945 46.8164 68 46.1367V56.6719C68 58.1445 66.7539 59.2773 65.3945 59.2773ZM52.3672 37.0742C48.6289 37.0742 45.6836 34.0156 45.6836 30.3906C45.6836 26.6523 48.6289 23.707 52.3672 23.707C55.9922 23.707 59.0508 26.6523 59.0508 30.3906C59.0508 34.0156 55.9922 37.0742 52.3672 37.0742ZM52.3672 25.0664C49.4219 25.0664 47.043 27.4453 47.043 30.3906C47.043 33.3359 49.4219 35.7148 52.3672 35.7148C55.3125 35.7148 57.6914 33.3359 57.6914 30.3906C57.6914 27.4453 55.3125 25.0664 52.3672 25.0664ZM37.1875 35.2617C35.9414 35.2617 36.9609 33.5625 35.6016 33.2227C34.4688 32.8828 35.4883 30.8438 37.1875 32.6562C38.7734 30.8438 39.793 32.8828 38.6602 33.2227C37.3008 33.6758 38.3203 35.2617 37.1875 35.2617ZM38.0938 29.1445C36.8477 29.1445 37.8672 27.5586 36.5078 27.1055C35.375 26.8789 36.3945 24.7266 38.0938 26.5391C39.6797 24.8398 40.6992 26.7656 39.5664 27.1055C38.207 27.5586 39.2266 29.1445 38.0938 29.1445ZM30.1641 27.5586C29.0312 27.5586 29.9375 25.9727 28.6914 25.5195C27.5586 25.293 28.4648 23.1406 30.1641 24.9531C31.8633 23.1406 32.7695 25.1797 31.6367 25.5195C30.3906 25.9727 31.2969 27.5586 30.1641 27.5586ZM46.25 47.3828C45.0039 46.5898 43.5312 46.0234 41.9453 45.7969C41.6055 39.3398 35.2617 34.8086 29.0312 36.7344C25.6328 29.5977 16.457 27.4453 10.2266 32.3164C10.2266 32.3164 10.1133 32.4297 10 32.543V21.3281C10 19.8555 11.2461 18.7227 12.6055 18.7227H65.3945C66.7539 18.7227 68 19.8555 68 21.3281V44.6641C65.2812 45.3438 62.2227 46.25 61.2031 47.043C57.125 42.7383 50.2148 42.8516 46.25 47.3828ZM49.3086 59.2773H13.625L11.4727 59.0508C10.5664 58.5977 10 57.6914 10 56.6719V34.582C10.793 33.9023 11.8125 32.8828 12.0391 32.7695C17.7031 29.1445 25.4062 31.4102 28.0117 37.7539C28.4648 38.7734 29.3711 37.6406 31.8633 37.6406C36.7344 37.6406 40.6992 41.7188 40.5859 46.4766C40.4727 47.8359 42.7383 46.3633 46.0234 48.8555C48.1758 50.5547 49.4219 53.0469 49.4219 55.7656L49.3086 59.2773Z" fill="white"/>
<defs>
<clipPath id="clip0_193_528">
<rect y="60" width="18" height="18" rx="2" fill="white"/>
</clipPath>
<clipPath id="clip1_193_528">
<rect width="18" height="18" rx="2" transform="matrix(1 0 0 -1 0 18)" fill="white"/>
</clipPath>
<clipPath id="clip2_193_528">
<rect x="78" y="18" width="18" height="18" rx="2" transform="rotate(180 78 18)" fill="white"/>
</clipPath>
<clipPath id="clip3_193_528">
<rect width="18" height="18" rx="2" transform="matrix(-1 0 0 1 78 60)" fill="white"/>
</clipPath>
</defs>
</svg>
