<svg width="78" height="78" viewBox="0 0 78 78" fill="none" xmlns="http://www.w3.org/2000/svg">
<path d="M38.9999 24.522C41.6724 24.522 43.8389 22.3555 43.8389 19.683C43.8389 17.0105 41.6724 14.844 38.9999 14.844C36.3274 14.844 34.1609 17.0105 34.1609 19.683C34.1609 22.3555 36.3274 24.522 38.9999 24.522Z" fill="#FFFFFF"/>
<path d="M15.8711 44.511V47.067C17.1091 46.718 18.0771 45.749 18.4271 44.511H15.8711Z" fill="#FFFFFF"/>
<path d="M62.129 63.156V60.6C60.891 60.949 59.923 61.918 59.573 63.156H62.129Z" fill="#FFFFFF"/>
<path d="M15.8711 58.534C18.2201 58.95 20.0771 60.807 20.4931 63.156H57.5071C57.9231 60.807 59.7801 58.95 62.1291 58.534V49.133C59.7801 48.717 57.9231 46.86 57.5071 44.511H20.4931C20.0771 46.86 18.2201 48.717 15.8711 49.133V58.534Z" fill="#FFFFFF"/>
<path d="M36.951 40.124H31.71H29.032H13.678V42.511H14.871H19.581H58.419H63.129H64.322V40.124H48.968H36.951Z" fill="#FFFFFF"/>
<path d="M47.968 38.124V35.489C47.968 30.544 43.946 26.521 39 26.521C34.054 26.521 30.032 30.543 30.032 35.489V38.124H36.951C37.529 38.124 38 37.653 38 37.075C38 36.497 37.529 36.027 36.951 36.027H35.354C34.801 36.027 34.354 35.58 34.354 35.027C34.354 34.474 34.801 34.027 35.354 34.027H36.951C38.632 34.027 40 35.394 40 37.075C40 37.445 39.924 37.795 39.802 38.124H47.968Z" fill="#FFFFFF"/>
<path d="M15.8711 63.156H18.4271C18.0781 61.918 17.1091 60.95 15.8711 60.6V63.156Z" fill="#FFFFFF"/>
<path d="M62.129 44.511H59.573C59.922 45.749 60.891 46.717 62.129 47.067V44.511Z" fill="#FFFFFF"/>
<g clip-path="url(#clip0_193_774)">
<line x1="0.5" y1="60" x2="0.5" y2="78" stroke="#6962A3"/>
<line y1="77.5" x2="18" y2="77.5" stroke="#6962A3"/>
</g>
<g clip-path="url(#clip1_193_774)">
<line y1="-0.5" x2="18" y2="-0.5" transform="matrix(0 -1 -1 0 0 18)" stroke="#6962A3"/>
<line y1="-0.5" x2="18" y2="-0.5" transform="matrix(1 0 0 -1 0 0)" stroke="#6962A3"/>
</g>
<g clip-path="url(#clip2_193_774)">
<line x1="77.5" y1="18" x2="77.5" stroke="#6962A3"/>
<line x1="78" y1="0.5" x2="60" y2="0.5" stroke="#6962A3"/>
</g>
<g clip-path="url(#clip3_193_774)">
<line y1="-0.5" x2="18" y2="-0.5" transform="matrix(0 1 1 0 78 60)" stroke="#6962A3"/>
<line y1="-0.5" x2="18" y2="-0.5" transform="matrix(-1 0 0 1 78 78)" stroke="#6962A3"/>
</g>
<defs>
<clipPath id="clip0_193_774">
<rect y="60" width="18" height="18" rx="2" fill="white"/>
</clipPath>
<clipPath id="clip1_193_774">
<rect width="18" height="18" rx="2" transform="matrix(1 0 0 -1 0 18)" fill="white"/>
</clipPath>
<clipPath id="clip2_193_774">
<rect x="78" y="18" width="18" height="18" rx="2" transform="rotate(180 78 18)" fill="white"/>
</clipPath>
<clipPath id="clip3_193_774">
<rect width="18" height="18" rx="2" transform="matrix(-1 0 0 1 78 60)" fill="white"/>
</clipPath>
</defs>
</svg>
