<svg width="58" height="58" viewBox="0 0 58 58" fill="none" xmlns="http://www.w3.org/2000/svg">
<path d="M29 19.9513C30.6703 19.9513 32.0243 18.5972 32.0243 16.9269C32.0243 15.2566 30.6703 13.9025 29 13.9025C27.3296 13.9025 25.9756 15.2566 25.9756 16.9269C25.9756 18.5972 27.3296 19.9513 29 19.9513Z" fill="white"/>
<path d="M14.5444 32.4444V34.0419C15.3182 33.8238 15.9232 33.2181 16.1419 32.4444H14.5444Z" fill="white"/>
<path d="M43.4554 44.0975V42.5C42.6817 42.7181 42.0767 43.3237 41.8579 44.0975H43.4554Z" fill="white"/>
<path d="M14.5444 41.2088C16.0126 41.4688 17.1732 42.6294 17.4332 44.0975H40.5669C40.8269 42.6294 41.9876 41.4688 43.4557 41.2088V35.3331C41.9876 35.0731 40.8269 33.9125 40.5669 32.4444H17.4332C17.1732 33.9125 16.0126 35.0731 14.5444 35.3331V41.2088Z" fill="white"/>
<path d="M27.7194 29.7025H24.4438H22.7701H13.1738V31.1944H13.9195H16.8632H41.1369H44.0807H44.8263V29.7025H35.2301H27.7194Z" fill="white"/>
<path d="M34.605 28.4525V26.8056C34.605 23.715 32.0913 21.2006 29 21.2006C25.9088 21.2006 23.395 23.7144 23.395 26.8056V28.4525H27.7194C28.0806 28.4525 28.375 28.1581 28.375 27.7969C28.375 27.4356 28.0806 27.1419 27.7194 27.1419H26.7213C26.3756 27.1419 26.0963 26.8625 26.0963 26.5169C26.0963 26.1712 26.3756 25.8919 26.7213 25.8919H27.7194C28.77 25.8919 29.625 26.7462 29.625 27.7969C29.625 28.0281 29.5775 28.2469 29.5013 28.4525H34.605Z" fill="white"/>
<path d="M14.5444 44.0975H16.1419C15.9238 43.3237 15.3182 42.7188 14.5444 42.5V44.0975Z" fill="white"/>
<path d="M43.4554 32.4444H41.8579C42.076 33.2181 42.6817 33.8231 43.4554 34.0419V32.4444Z" fill="white"/>
<g clip-path="url(#clip0_424_1477)">
<line x1="0.5" y1="40" x2="0.5" y2="58" stroke="white"/>
<line y1="57.5" x2="18" y2="57.5" stroke="white"/>
</g>
<g clip-path="url(#clip1_424_1477)">
<line y1="-0.5" x2="18" y2="-0.5" transform="matrix(0 -1 -1 0 0 18)" stroke="white"/>
<line y1="-0.5" x2="18" y2="-0.5" transform="matrix(1 0 0 -1 0 0)" stroke="white"/>
</g>
<g clip-path="url(#clip2_424_1477)">
<line x1="57.5" y1="18" x2="57.5" stroke="white"/>
<line x1="58" y1="0.5" x2="40" y2="0.5" stroke="white"/>
</g>
<g clip-path="url(#clip3_424_1477)">
<line y1="-0.5" x2="18" y2="-0.5" transform="matrix(0 1 1 0 58 40)" stroke="white"/>
<line y1="-0.5" x2="18" y2="-0.5" transform="matrix(-1 0 0 1 58 58)" stroke="white"/>
</g>
<defs>
<clipPath id="clip0_424_1477">
<rect y="40" width="18" height="18" rx="2" fill="white"/>
</clipPath>
<clipPath id="clip1_424_1477">
<rect width="18" height="18" rx="2" transform="matrix(1 0 0 -1 0 18)" fill="white"/>
</clipPath>
<clipPath id="clip2_424_1477">
<rect x="58" y="18" width="18" height="18" rx="2" transform="rotate(180 58 18)" fill="white"/>
</clipPath>
<clipPath id="clip3_424_1477">
<rect width="18" height="18" rx="2" transform="matrix(-1 0 0 1 58 40)" fill="white"/>
</clipPath>
</defs>
</svg>
