<svg width="78" height="78" viewBox="0 0 78 78" fill="none" xmlns="http://www.w3.org/2000/svg">
<g clip-path="url(#clip0_193_223)">
<line x1="0.5" y1="60" x2="0.5" y2="78" stroke="white"/>
<line y1="77.5" x2="18" y2="77.5" stroke="white"/>
</g>
<g clip-path="url(#clip1_193_223)">
<line y1="-0.5" x2="18" y2="-0.5" transform="matrix(0 -1 -1 0 0 18)" stroke="white"/>
<line y1="-0.5" x2="18" y2="-0.5" transform="matrix(1 0 0 -1 0 0)" stroke="white"/>
</g>
<g clip-path="url(#clip2_193_223)">
<line x1="77.5" y1="18" x2="77.5" stroke="white"/>
<line x1="78" y1="0.5" x2="60" y2="0.5" stroke="white"/>
</g>
<g clip-path="url(#clip3_193_223)">
<line y1="-0.5" x2="18" y2="-0.5" transform="matrix(0 1 1 0 78 60)" stroke="white"/>
<line y1="-0.5" x2="18" y2="-0.5" transform="matrix(-1 0 0 1 78 78)" stroke="white"/>
</g>
<path d="M63.56 22.698H65.42V18.418H26.063L28.374 19.682C28.695 19.857 28.895 20.194 28.895 20.559C28.895 20.924 28.696 21.261 28.374 21.436L26.067 22.698H57.936C57.936 22.698 57.939 22.698 57.941 22.698H63.554C63.554 22.698 63.557 22.698 63.559 22.698H63.56Z" fill="white"/>
<path d="M14.4451 22.697H17.6731L15.3681 21.436C15.0471 21.26 14.8471 20.924 14.8471 20.559C14.8471 20.194 15.0461 19.857 15.3681 19.682L17.6791 18.418H12.5801V22.698H14.4401C14.4401 22.698 14.4431 22.698 14.4451 22.698V22.697Z" fill="white"/>
<path d="M58.9409 24.698H62.5539V61.235H58.9409V24.698Z" fill="white"/>
<path d="M20.6179 22.208L21.8709 24.498L23.1239 22.208C23.2159 22.041 23.3529 21.902 23.5209 21.811L25.8099 20.559L23.5209 19.307C23.3529 19.215 23.2149 19.077 23.1239 18.91L21.8709 16.62L20.6179 18.91C20.5259 19.077 20.3889 19.216 20.2209 19.307L17.9319 20.559L20.2209 21.811C20.3889 21.903 20.5269 22.041 20.6179 22.208Z" fill="white"/>
<path d="M56.9411 24.698H24.0411L22.7481 27.062C22.5731 27.383 22.2361 27.582 21.8711 27.582C21.5431 27.582 21.2441 27.415 21.0591 27.15V46.928H56.9421L56.9411 24.698ZM52.0201 36.344L48.3831 38.333L46.3941 41.969C46.2191 42.29 45.8821 42.49 45.5171 42.49C45.1521 42.49 44.8151 42.291 44.6401 41.969L42.6511 38.333L39.0141 36.344C38.6931 36.169 38.4931 35.832 38.4931 35.467C38.4931 35.102 38.6921 34.765 39.0141 34.59L42.6511 32.601L44.6401 28.964C44.9901 28.323 46.0441 28.322 46.3941 28.964L48.3831 32.601L52.0201 34.59C52.3411 34.765 52.5411 35.102 52.5411 35.467C52.5411 35.832 52.3421 36.169 52.0201 36.344Z" fill="white"/>
<path d="M15.4451 24.698H19.0581V61.235H15.4451V24.698Z" fill="white"/>
<path d="M46.7711 33.817L45.5181 31.527L44.2661 33.817C44.1741 33.984 44.0371 34.123 43.8691 34.214L41.5791 35.466L43.8691 36.718C44.0371 36.81 44.1751 36.948 44.2661 37.115L45.5181 39.405L46.7711 37.115C46.8631 36.948 47.0001 36.809 47.1681 36.718L49.4571 35.466L47.1681 34.214C47.0001 34.122 46.8621 33.984 46.7711 33.817Z" fill="white"/>
<path d="M34.2291 55.791L32.9761 53.502L31.7231 55.791C31.6311 55.959 31.4941 56.097 31.3261 56.188L29.0371 57.441L31.3261 58.694C31.4941 58.786 31.6321 58.923 31.7231 59.091L32.9761 61.38L34.2291 59.091C34.3211 58.923 34.4581 58.785 34.6261 58.694L36.9151 57.441L34.6261 56.188C34.4581 56.096 34.3201 55.959 34.2291 55.791Z" fill="white"/>
<defs>
<clipPath id="clip0_193_223">
<rect y="60" width="18" height="18" rx="2" fill="white"/>
</clipPath>
<clipPath id="clip1_193_223">
<rect width="18" height="18" rx="2" transform="matrix(1 0 0 -1 0 18)" fill="white"/>
</clipPath>
<clipPath id="clip2_193_223">
<rect x="78" y="18" width="18" height="18" rx="2" transform="rotate(180 78 18)" fill="white"/>
</clipPath>
<clipPath id="clip3_193_223">
<rect width="18" height="18" rx="2" transform="matrix(-1 0 0 1 78 60)" fill="white"/>
</clipPath>
</defs>
</svg>
